# xmcd
#
# Track frame offsets: 
#        150
#        19376
#        41268
#        57344
#        74874
#        94054
#        110686
#        127220
#        146451
#        162691
#        179502
#        198213
#        215909
#
# Disc length: 3175 seconds
#
# Revision: 0
# Processed by: cddbd v1.5.2PL0 Copyright (c) Steve Scherf et al.
# Submitted via: ExactAudioCopy v0.95b4
#
DISCID=d40c650d
DTITLE=GIANT SWING DELI - GIANT SWING
DYEAR=2007
DGENRE=J-R&B
TTITLE0=GET UP feat.MICHICO,L.L. BROTHERS,WARNER
TTITLE1=TURN AROUND feat.Chuka
TTITLE2=WHY BABY feat.CHEMISTRY
TTITLE3=YOUR EYES ON ME feat.TIGER
TTITLE4=BITTER LIFE feat.AI
TTITLE5=HOW LOW feat.Sam Salter
TTITLE6=CAN I GET IT? feat.WARNER
TTITLE7=HOLD YOU feat.SHAMORA
TTITLE8=LET'S GO OUT feat.L.L. BROTHERS
TTITLE9=I GOT A MAN feat.MICHICO
TTITLE10=LIFE TIME STORY feat.ORITO
TTITLE11=CAN'T LIVE WITHOUT YOU feat.MICHICO
TTITLE12=I GOT A MAN(REMIX) feat.MICHICO,The Kid Slim
EXTD=
EXTT0=
EXTT1=
EXTT2=
EXTT3=
EXTT4=
EXTT5=
EXTT6=
EXTT7=
EXTT8=
EXTT9=
EXTT10=
EXTT11=
EXTT12=
PLAYORDER=
